<svg xmlns="http://www.w3.org/2000/svg" viewBox="0 0 64 64"><path fill="#32397c" d="M43.9 35.16C56.11 30.31 64 18.8 64 5.79c0-.54-.43-.97-.97-.97H50.31v-.64a.97.97 0 0 0-.97-.97H14.66c-.53 0-.96.43-.96.97v.64H.97c-.54 0-.97.43-.97.97C0 18.8 7.88 30.3 20.09 35.15a18.32 18.32 0 0 0 6.51 3.61v8.8h-6.98c-.54 0-.97.43-.97.97v4.68h-2.93c-.42 0-.79.27-.92.67l-1.83 5.64c-.09.3-.04.62.14.87.18.25.47.4.78.4h37.27c.31 0 .6-.15.78-.4s.24-.57.14-.87l-1.83-5.64c-.13-.4-.5-.67-.92-.67H46.4v-4.68c0-.54-.43-.97-.97-.97h-8.02v-8.8c2.42-.75 4.61-1.99 6.49-3.6zm6.41-13.89v-9.84h6.43c-1.04 4.42-3.32 8.48-6.53 11.75.06-.63.1-1.26.1-1.91zm-.75 5.15c4.88-4.05 8.19-9.64 9.33-15.78a.968.968 0 0 0-.21-.8.954.954 0 0 0-.74-.35h-7.63V6.76h11.74c-.34 10.31-5.96 19.51-14.81 24.63 1.01-1.52 1.79-3.19 2.32-4.97zM13.8 23.18c-3.22-3.27-5.49-7.32-6.53-11.75h6.43v9.84c0 .65.03 1.28.1 1.91zM1.95 6.76H13.7v2.73H6.07c-.29 0-.56.13-.74.35-.19.22-.26.52-.21.8 1.14 6.15 4.45 11.73 9.32 15.78.53 1.78 1.31 3.45 2.31 4.96C7.91 26.27 2.29 17.07 1.95 6.76zm46.67 48.38 1.2 3.71H15.23l1.2-3.71h32.19zm-4.16-5.64v3.71H20.59V49.5h23.87zm-15.92-1.94v-8.32a17.885 17.885 0 0 0 6.93 0v8.32h-6.93zM32 37.64c-9.02 0-16.37-7.34-16.37-16.37V5.15h32.74v16.12c0 9.03-7.35 16.37-16.37 16.37z"/><path fill="#ecc25d" d="M35.47 39.24v8.32h-6.93v-8.32a17.885 17.885 0 0 0 6.93 0z"/><path fill="#ffdc7c" d="M20.59 49.5h23.87v3.71H20.59z"/><path fill="#ecc25d" d="M49.82 58.85H15.23l1.2-3.71h32.19zM16.75 31.38C7.91 26.27 2.29 17.07 1.95 6.76H13.7v2.73H6.07c-.29 0-.56.13-.74.35-.19.22-.26.52-.21.8 1.14 6.15 4.45 11.73 9.32 15.78.53 1.78 1.31 3.45 2.31 4.96zm45.3-24.62c-.34 10.31-5.96 19.51-14.81 24.63 1.01-1.52 1.79-3.19 2.32-4.97 4.88-4.05 8.19-9.64 9.33-15.78a.968.968 0 0 0-.21-.8.954.954 0 0 0-.74-.35h-7.63V6.76h11.74z"/><path fill="#ffdc7c" d="M15.63 5.15v16.12c0 9.03 7.35 16.37 16.37 16.37s16.37-7.34 16.37-16.37V5.15H15.63zM43.5 17.5 37.32 22l2.36 7.27c.13.39-.02.83-.36 1.08s-.79.25-1.14 0L32 25.86l-6.18 4.49a.988.988 0 0 1-1.14 0 .973.973 0 0 1-.36-1.08L26.69 22l-6.19-4.5a.967.967 0 0 1 .57-1.75h7.65l2.36-7.27a.967.967 0 0 1 1.84 0l2.37 7.27h7.64a.967.967 0 0 1 .57 1.75z"/><path fill="#32397c" d="M43.85 16.42c-.13-.4-.5-.67-.92-.67h-7.64l-2.37-7.27a.967.967 0 0 0-1.84 0l-2.36 7.27h-7.65a.967.967 0 0 0-.57 1.75l6.19 4.5-2.37 7.27c-.13.39.02.83.36 1.08a.988.988 0 0 0 1.14 0L32 25.86l6.18 4.49c.35.25.8.25 1.14 0s.49-.69.36-1.08L37.32 22l6.18-4.5c.34-.25.48-.68.35-1.08zm-8.24 4.42c-.34.25-.49.69-.36 1.08l1.66 5.11-4.34-3.16a.988.988 0 0 0-1.14 0l-4.34 3.16 1.66-5.11a.968.968 0 0 0-.35-1.08l-4.35-3.15h5.37c.42 0 .79-.27.92-.67L32 11.91l1.66 5.11c.13.4.5.67.92.67h5.37l-4.34 3.15z"/><path fill="#fff" d="m35.25 21.92 1.66 5.11-4.34-3.16a.988.988 0 0 0-1.14 0l-4.34 3.16 1.66-5.11a.968.968 0 0 0-.35-1.08l-4.35-3.15h5.37c.42 0 .79-.27.92-.67L32 11.91l1.66 5.11c.13.4.5.67.92.67h5.37l-4.34 3.15c-.34.25-.49.69-.36 1.08z"/></svg>