<svg xmlns="http://www.w3.org/2000/svg" viewBox="0 0 512 512"><path d="M353.9 350.387a9.856 9.856 0 0 0-2.636 8.313c.163 1.071 3.647 26.25-25.275 33.942a10.527 10.527 0 0 0-3.882 1.84 9.89 9.89 0 0 0-3.3 10.833c.095.29 2.318 7.1 5.766 16.677a19.164 19.164 0 0 1-2.245 17.714 18.347 18.347 0 0 1-15.41 7.661A19.041 19.041 0 0 1 290 435.554l-33.043-77.922a50.749 50.749 0 0 0-6.56-11.169h19.35a10.133 10.133 0 0 0 10.268-9.558 9.859 9.859 0 0 0-9.855-10.162H136.145c-16.366 0-30.323-12.7-30.942-29.056A30.255 30.255 0 0 1 135.4 266.3h34.738a42.766 42.766 0 0 0 41.14-31.277c13.663 1.644 37.887 2.15 58.181-10.144a72.18 72.18 0 0 0 21.4 22.3c-2.261 8.714-9.006 25.072-28.507 32.762a10.143 10.143 0 0 0-6.133 12.462 9.851 9.851 0 0 0 12.9 6.065c25.14-9.712 35.466-29.324 39.669-42.458a93.385 93.385 0 0 0 20.628 4.51 9.856 9.856 0 0 0 10.9-9.535 10.05 10.05 0 0 0-9.017-10.1c-29.421-3.207-42.013-20.29-46.575-28.959 9.894-11.6 15.727-27.1 17.384-46.254a9.86 9.86 0 0 0-9.342-10.7c-5.391-.269-9.855 4.1-10.346 9.472-1.757 19.25-8.594 33.271-20.328 41.682-22.441 16.085-56.421 7.994-56.741 7.916a9.873 9.873 0 0 0-10.294 3.664 10.03 10.03 0 0 0-1.957 5.982 23 23 0 0 1-22.969 22.889H131.2c-14.108 0-30.582-6.531-30.6-24.934a9.72 9.72 0 0 0-6.325-9.281 9.9 9.9 0 0 0-13.4 9.245c0 16.476 8.116 29.84 21.457 37.53a49.825 49.825 0 0 0-16.876 37.23c-.082 27.555 23.314 50.094 50.869 50.094H210.3a30.95 30.95 0 0 1 28.5 18.868l33.256 78.423a38.28 38.28 0 0 0 71.251-27.937c-.982-2.719-1.869-5.232-2.637-7.437 21.4-9.318 28.884-27.168 30.289-41.176 11.474-1 19.37-5.834 24.463-11.383a9.838 9.838 0 0 0-5.019-16.157 9.723 9.723 0 0 0-9.478 2.819c-2.748 3.011-8.2 6.112-18.826 4.934A9.846 9.846 0 0 0 353.9 350.387zM456.816 193.151c-.485-9.751-2.863-26.2-12.768-37.094a10.151 10.151 0 0 0-13.64-1.532 9.863 9.863 0 0 0-1.15 14.583c7.372 7.807 8.2 24.859 7.9 30.751a9.86 9.86 0 0 0 7.517 10.128c12.692 3.081 21.977 13.887 21.977 26.948v30.558a37.276 37.276 0 0 1-37.245 37.275c-14.024 0-23.936-3.7-29.46-11.008a22.489 22.489 0 0 1-2.837-4.985 9.929 9.929 0 0 0-18.293 7.727c5.649 13.49 20.169 28.157 51.1 27.984a56.921 56.921 0 0 0 56.451-56.993V236.935A47.533 47.533 0 0 0 456.816 193.151zM344.323 61.335a80.708 80.708 0 0 0-55.512 5.959C240.634 36.469 201.44 43.03 176.779 54.25c-27.317 12.428-42.6 32.885-43.237 33.75A9.86 9.86 0 0 0 149.4 99.721c1.989-2.666 47.386-61.83 121.21-20.369-1.851 1.583-3.664 3.245-5.424 5a188.062 188.062 0 0 0-21.809 26.6 9.86 9.86 0 1 0 16.26 11.158 168.367 168.367 0 0 1 19.489-23.8c16.919-16.907 38.407-23.236 60.5-17.818a9.86 9.86 0 1 0 4.7-19.152zM366.653 93.858l.046.037a9.934 9.934 0 0 0 6.156 2.128A9.818 9.818 0 0 0 380.6 92.3a9.937 9.937 0 1 0-13.942 1.561zM384.374 175.337a9.86 9.86 0 0 0 17.39 9.3s.351-.649.942-1.869c12.295-25.354 12.168-52.42-.355-76.212a9.86 9.86 0 1 0-17.45 9.186c9.53 18.1 9.552 38.851.062 58.421C384.626 174.855 384.414 175.26 384.374 175.337z"/><path d="M26.181,234.72c-2.73,20,4.693,40.5,22.063,60.934a9.86,9.86,0,0,0,15.025-12.772c-13.524-15.911-19.438-31.155-17.575-45.31,2.595-19.708,19.67-31.711,19.8-31.8a9.859,9.859,0,0,0,3.772-11.447C55.538,155.415,85.537,136.79,87.375,135.7c12.38-6.739,24.251-8.482,35.29-5.177,21.473,6.43,34.109,29.677,34.331,30.091a9.86,9.86,0,0,0,17.454-9.179c-.658-1.254-16.45-30.825-45.966-39.754-16.355-4.948-33.406-2.667-50.683,6.778l-.163.091c-15.292,8.738-39.813,35.33-29.047,75.627C41.127,200.953,28.9,214.82,26.181,234.72Z"/></svg>